<?xml version="1.0" encoding="UTF-8" standalone="yes"?><svg xmlns="http://www.w3.org/2000/svg" xmlns:xlink="http://www.w3.org/1999/xlink" height="277pt" style="width:413px;height:277px;" version="1.1" viewBox="0 0 413 277" width="413pt"><defs><filter height="300%" id="f1" width="300%" x="-1" y="-1"><feGaussianBlur result="blurOut" stdDeviation="2.0"/><feColorMatrix in="blurOut" result="blurOut2" type="matrix" values="0 0 0 0 0 0 0 0 0 0 0 0 0 0 0 0 0 0 .4 0"/><feOffset dx="4.0" dy="4.0" in="blurOut2" result="blurOut3"/><feBlend in="SourceGraphic" in2="blurOut3" mode="normal"/></filter><linearGradient id="gr0" x1="0%" x2="100%" y1="0%" y2="100%"><stop offset="0%" stop-color="#EEF5F9"/><stop offset="100%" stop-color="#CEE7F6"/></linearGradient></defs><g><ellipse cx="208" cy="20" fill="#000000" filter="url(#f1)" rx="10" ry="10" style="stroke: none; stroke-width: 1.0;"/><polygon fill="url(#gr0)" filter="url(#f1)" points="162,50,254,50,266,62,254,74,162,74,150,62,162,50" style="stroke: #000000; stroke-width: 1.5;"/><text fill="#000000" font-size="11" lengthAdjust="spacingAndGlyphs" textLength="92" x="162" y="66.5938">multiprocessor?</text><text fill="#000000" font-size="11" lengthAdjust="spacingAndGlyphs" textLength="20" x="130" y="60.1875">yes</text><text fill="#000000" font-size="11" lengthAdjust="spacingAndGlyphs" textLength="57" x="266" y="60.1875">monoproc</text><rect fill="#000000" filter="url(#f1)" height="6" rx="2.5" ry="2.5" style="stroke: #000000; stroke-width: 1.0;" width="250" x="10" y="102.4844"/><rect fill="url(#gr0)" filter="url(#f1)" height="33.9688" rx="12.5" ry="12.5" style="stroke: #000000; stroke-width: 1.5;" width="97" x="24" y="128.4844"/><text fill="#000000" font-size="12" lengthAdjust="spacingAndGlyphs" textLength="77" x="34" y="150.4844">Treatment 1</text><rect fill="url(#gr0)" filter="url(#f1)" height="33.9688" rx="12.5" ry="12.5" style="stroke: #000000; stroke-width: 1.5;" width="97" x="149" y="128.4844"/><text fill="#000000" font-size="12" lengthAdjust="spacingAndGlyphs" textLength="77" x="159" y="150.4844">Treatment 2</text><rect fill="#000000" filter="url(#f1)" height="6" rx="2.5" ry="2.5" style="stroke: #000000; stroke-width: 1.0;" width="250" x="10" y="182.4531"/><rect fill="url(#gr0)" filter="url(#f1)" height="33.9688" rx="12.5" ry="12.5" style="stroke: #000000; stroke-width: 1.5;" width="97" x="309" y="94"/><text fill="#000000" font-size="12" lengthAdjust="spacingAndGlyphs" textLength="77" x="319" y="116">Treatment 1</text><rect fill="url(#gr0)" filter="url(#f1)" height="33.9688" rx="12.5" ry="12.5" style="stroke: #000000; stroke-width: 1.5;" width="97" x="309" y="162.9688"/><text fill="#000000" font-size="12" lengthAdjust="spacingAndGlyphs" textLength="77" x="319" y="184.9688">Treatment 2</text><polygon fill="url(#gr0)" filter="url(#f1)" points="208,206.9375,220,218.9375,208,230.9375,196,218.9375,208,206.9375" style="stroke: #000000; stroke-width: 1.5;"/><ellipse cx="208" cy="260.9375" fill="none" filter="url(#f1)" rx="10" ry="10" style="stroke: #000000; stroke-width: 1.0;"/><ellipse cx="208.5" cy="261.4375" fill="#000000" filter="url(#f1)" rx="6" ry="6" style="stroke: none; stroke-width: 1.0;"/><line style="stroke: #000000; stroke-width: 1.5;" x1="72.5" x2="72.5" y1="108.4844" y2="128.4844"/><polygon fill="#000000" points="68.5,118.4844,72.5,128.4844,76.5,118.4844,72.5,122.4844" style="stroke: #000000; stroke-width: 1.0;"/><line style="stroke: #000000; stroke-width: 1.5;" x1="72.5" x2="72.5" y1="162.4531" y2="182.4531"/><polygon fill="#000000" points="68.5,172.4531,72.5,182.4531,76.5,172.4531,72.5,176.4531" style="stroke: #000000; stroke-width: 1.0;"/><line style="stroke: #000000; stroke-width: 1.5;" x1="197.5" x2="197.5" y1="108.4844" y2="128.4844"/><polygon fill="#000000" points="193.5,118.4844,197.5,128.4844,201.5,118.4844,197.5,122.4844" style="stroke: #000000; stroke-width: 1.0;"/><line style="stroke: #000000; stroke-width: 1.5;" x1="197.5" x2="197.5" y1="162.4531" y2="182.4531"/><polygon fill="#000000" points="193.5,172.4531,197.5,182.4531,201.5,172.4531,197.5,176.4531" style="stroke: #000000; stroke-width: 1.0;"/><line style="stroke: #000000; stroke-width: 1.5;" x1="357.5" x2="357.5" y1="127.9688" y2="162.9688"/><polygon fill="#000000" points="353.5,152.9688,357.5,162.9688,361.5,152.9688,357.5,156.9688" style="stroke: #000000; stroke-width: 1.0;"/><line style="stroke: #000000; stroke-width: 1.5;" x1="135" x2="150" y1="62" y2="62"/><line style="stroke: #000000; stroke-width: 1.5;" x1="135" x2="135" y1="62" y2="102.4844"/><polygon fill="#000000" points="131,92.4844,135,102.4844,139,92.4844,135,96.4844" style="stroke: #000000; stroke-width: 1.0;"/><line style="stroke: #000000; stroke-width: 1.5;" x1="266" x2="357.5" y1="62" y2="62"/><line style="stroke: #000000; stroke-width: 1.5;" x1="357.5" x2="357.5" y1="62" y2="94"/><polygon fill="#000000" points="353.5,84,357.5,94,361.5,84,357.5,88" style="stroke: #000000; stroke-width: 1.0;"/><line style="stroke: #000000; stroke-width: 1.5;" x1="135" x2="135" y1="188.4531" y2="218.9375"/><line style="stroke: #000000; stroke-width: 1.5;" x1="135" x2="196" y1="218.9375" y2="218.9375"/><polygon fill="#000000" points="186,214.9375,196,218.9375,186,222.9375,190,218.9375" style="stroke: #000000; stroke-width: 1.0;"/><line style="stroke: #000000; stroke-width: 1.5;" x1="357.5" x2="357.5" y1="196.9375" y2="218.9375"/><line style="stroke: #000000; stroke-width: 1.5;" x1="220" x2="357.5" y1="218.9375" y2="218.9375"/><polygon fill="#000000" points="230,214.9375,220,218.9375,230,222.9375,226,218.9375" style="stroke: #000000; stroke-width: 1.0;"/><line style="stroke: #000000; stroke-width: 1.5;" x1="208" x2="208" y1="30" y2="50"/><polygon fill="#000000" points="204,40,208,50,212,40,208,44" style="stroke: #000000; stroke-width: 1.0;"/><line style="stroke: #000000; stroke-width: 1.5;" x1="208" x2="208" y1="230.9375" y2="250.9375"/><polygon fill="#000000" points="204,240.9375,208,250.9375,212,240.9375,208,244.9375" style="stroke: #000000; stroke-width: 1.0;"/></g></svg>